<svg width="34" height="24" viewBox="0 0 34 24" fill="none" xmlns="http://www.w3.org/2000/svg">
<path d="M0.333496 1.99165C0.333496 1.07498 1.07683 0.333313 1.99183 0.333313H15.3418C15.7816 0.333313 16.2035 0.508029 16.5144 0.819027C16.8254 1.13003 17.0002 1.55183 17.0002 1.99165C17.0002 2.43146 16.8254 2.85327 16.5144 3.16427C16.2035 3.47526 15.7816 3.64998 15.3418 3.64998H1.99183C1.55201 3.64998 1.13021 3.47526 0.819211 3.16427C0.508213 2.85327 0.333496 2.43146 0.333496 1.99165ZM0.333496 12C0.333496 11.0833 1.07683 10.3416 1.99183 10.3416H32.0085C32.4483 10.3416 32.8701 10.5164 33.1811 10.8274C33.4921 11.1384 33.6668 11.5602 33.6668 12C33.6668 12.4398 33.4921 12.8616 33.1811 13.1726C32.8701 13.4836 32.4483 13.6583 32.0085 13.6583H1.99183C1.55201 13.6583 1.13021 13.4836 0.819211 13.1726C0.508213 12.8616 0.333496 12.4398 0.333496 12ZM1.99183 20.35C1.55201 20.35 1.13021 20.5247 0.819211 20.8357C0.508213 21.1467 0.333496 21.5685 0.333496 22.0083C0.333496 22.4481 0.508213 22.8699 0.819211 23.1809C1.13021 23.4919 1.55201 23.6666 1.99183 23.6666H22.0085C22.4483 23.6666 22.8701 23.4919 23.1811 23.1809C23.4921 22.8699 23.6668 22.4481 23.6668 22.0083C23.6668 21.5685 23.4921 21.1467 23.1811 20.8357C22.8701 20.5247 22.4483 20.35 22.0085 20.35H1.99183Z" fill="#B59571"/>
</svg>
