<svg width="34" height="20" viewBox="0 0 34 20" fill="none" xmlns="http://www.w3.org/2000/svg">
<path d="M33.6146 1.47505C33.898 2.24094 33.0275 4.02801 31.0031 6.83627C30.7197 7.21922 30.3553 7.72981 29.91 8.36805C28.9787 9.55944 28.4524 10.3466 28.3309 10.7295C28.1285 11.2401 28.2095 11.7295 28.5739 12.1975C28.7763 12.4528 29.2419 12.9634 29.9707 13.7293H30.0314V13.7931C31.6914 15.3674 32.8049 16.7077 33.3717 17.814L33.4932 18.0693L33.6146 18.548V19.1543L33.1895 19.633L32.1571 19.8564L27.7236 19.984C27.4402 20.0266 27.1062 19.984 26.7215 19.8564C26.3369 19.7287 26.0434 19.6011 25.8409 19.4735L25.4765 19.2182C25.1121 18.9629 24.7073 18.5799 24.2619 18.0693C23.8165 17.5587 23.4218 17.0907 23.0776 16.6652C22.7335 16.2397 22.3792 15.8887 22.0148 15.6121C21.6504 15.3355 21.3265 15.2398 21.0431 15.3249C21.0026 15.3249 20.952 15.3462 20.8913 15.3887C20.8305 15.4313 20.7293 15.527 20.5876 15.6759C20.4459 15.8248 20.3244 16.0057 20.2232 16.2184C20.122 16.4312 20.0309 16.7397 19.9499 17.1439C19.8689 17.5481 19.8285 18.0268 19.8285 18.5799C19.8285 18.7501 19.8082 18.9097 19.7677 19.0586C19.7272 19.2075 19.6868 19.3245 19.6463 19.4096L19.5855 19.4735C19.3426 19.7287 19.0187 19.8564 18.6138 19.8564H16.6704C15.8202 19.9415 14.9598 19.8564 14.0893 19.6011C13.2188 19.3458 12.4596 19.016 11.8118 18.6118C11.164 18.2076 10.577 17.8034 10.0506 17.3992C9.52427 16.9949 9.11939 16.6439 8.83597 16.3461L8.41085 15.8993C8.28939 15.8142 8.12743 15.644 7.92499 15.3887C7.72255 15.1334 7.30755 14.5803 6.67999 13.7293C6.05242 12.8783 5.43498 11.9635 4.82766 10.9848C4.22034 10.0062 3.5118 8.71909 2.70204 7.12348C1.89228 5.52788 1.14326 3.87909 0.45496 2.17711C0.373984 1.96436 0.333496 1.79417 0.333496 1.66652C0.333496 1.53887 0.35374 1.4325 0.394228 1.3474L0.45496 1.28357C0.616912 1.02828 0.940816 0.900629 1.42667 0.900629H6.2245C6.34596 0.900629 6.46743 0.932541 6.58889 0.996366L6.89255 1.15593L6.95328 1.21975C7.15572 1.3474 7.29743 1.53887 7.37841 1.79417C7.62133 2.38986 7.89463 3.01746 8.19829 3.67698C8.50195 4.33649 8.73475 4.83645 8.89671 5.17685L9.13963 5.68744C9.50403 6.41078 9.83805 7.03838 10.1417 7.57025C10.4454 8.10212 10.7187 8.51698 10.9616 8.81482C11.2045 9.11267 11.4474 9.34669 11.6904 9.51689C11.9333 9.68709 12.1357 9.77218 12.2977 9.77218C12.4596 9.77218 12.6216 9.75091 12.7836 9.70836L12.8443 9.61262L13.0568 9.19777L13.2998 8.36805L13.4516 6.9001V4.60243C13.4111 4.13439 13.3504 3.69825 13.2694 3.29403C13.1884 2.88981 13.1075 2.60261 13.0265 2.43241L12.9657 2.24094C12.6823 1.81544 12.1762 1.53887 11.4474 1.41122C11.326 1.41122 11.3665 1.2623 11.5689 0.964454C11.7714 0.751706 11.994 0.581509 12.237 0.45386C12.8443 0.113465 14.2209 -0.0354579 16.3667 0.00709157C17.298 0.00709157 18.0875 0.0921904 18.7353 0.262388C18.9377 0.304938 19.1199 0.379399 19.2819 0.485773C19.4438 0.592146 19.5653 0.741069 19.6463 0.932541C19.7272 1.12401 19.788 1.31549 19.8285 1.50696C19.8689 1.69843 19.8892 1.975 19.8892 2.33667V3.32595C19.8487 3.66634 19.8285 4.09184 19.8285 4.60243V6.13421C19.8285 6.26186 19.8183 6.51715 19.7981 6.9001C19.7779 7.28304 19.7677 7.58089 19.7677 7.79364C19.7677 8.00638 19.788 8.25104 19.8285 8.52761C19.8689 8.80418 19.9398 9.03821 20.041 9.22968C20.1422 9.42115 20.2738 9.55944 20.4358 9.64454C20.5168 9.68709 20.6079 9.719 20.7091 9.74027C20.8103 9.76155 20.9621 9.69772 21.1646 9.5488C21.367 9.39988 21.5897 9.18713 21.8326 8.91056C22.0755 8.63399 22.3792 8.21913 22.7436 7.66599C23.108 7.11284 23.4926 6.4746 23.8975 5.75126C24.5858 4.47478 25.2134 3.09192 25.7802 1.60269C25.8207 1.5176 25.8713 1.42186 25.932 1.31549C25.9928 1.20911 26.0636 1.13465 26.1446 1.0921H26.2053L26.2661 1.02828L26.509 0.964454H26.8734L31.8534 0.900629C32.2988 0.85808 32.6733 0.879355 32.9769 0.964454C33.2806 1.04955 33.4527 1.15593 33.4932 1.28357L33.6146 1.47505Z" fill="#B59571"/>
</svg>
